<svg width="84" height="71" viewBox="0 0 84 71" fill="none" xmlns="http://www.w3.org/2000/svg">
    <g filter="url(#filter0_d)">
        <path d="M5.03103 60.6154V3.68269C5.03103 3.28526 4.85423 2.95406 4.50063 2.6891C4.21775 2.35791 3.86415 2.19231 3.43983 2.19231H1.84864V62.1058H3.43983C3.86415 62.1058 4.21775 61.9733 4.50063 61.7083C4.85423 61.3771 5.03103 61.0128 5.03103 60.6154ZM3.43983 1.39744C4.14703 1.39744 4.71279 1.62928 5.13711 2.09295C5.63215 2.55663 5.87967 3.08654 5.87967 3.68269V60.6154C5.87967 61.2778 5.63215 61.8408 5.13711 62.3045C4.71279 62.7019 4.14703 62.9006 3.43983 62.9006H1V1.39744H3.43983Z" fill="white"></path>
        <path d="M22.6129 30.3109V3.38461C22.6129 2.92094 22.4361 2.55663 22.0825 2.29167C21.7996 2.02671 21.446 1.89423 21.0217 1.89423C20.5974 1.89423 20.2084 2.02671 19.8548 2.29167C19.572 2.55663 19.4305 2.92094 19.4305 3.38461V31.8013H21.0217C21.446 31.8013 21.7996 31.6688 22.0825 31.4038C22.4361 31.0727 22.6129 30.7083 22.6129 30.3109ZM19.2184 1.79487C19.7134 1.3312 20.2792 1.09936 20.9156 1.09936C21.6228 1.09936 22.224 1.3312 22.719 1.79487C23.214 2.19231 23.4615 2.72222 23.4615 3.38461V30.3109C23.4615 31.1058 23.1079 31.735 22.4007 32.1987C23.0372 32.5962 23.3908 33.1923 23.4615 33.9872V63H22.6129V34.1859C22.6129 33.7885 22.4361 33.4241 22.0825 33.0929C21.7996 32.7617 21.446 32.5962 21.0217 32.5962H19.4305V63H18.5819V3.38461C18.5819 2.72222 18.794 2.19231 19.2184 1.79487Z" fill="white"></path>
        <path d="M36.9088 31.7019H40.0912V3.28526C40.0912 2.88782 39.9144 2.55663 39.5608 2.29167C39.2779 2.02671 38.9243 1.89423 38.5 1.89423C38.0757 1.89423 37.6867 2.02671 37.3331 2.29167C37.0502 2.55663 36.9088 2.88782 36.9088 3.28526V31.7019ZM36.6966 1.69552C37.1917 1.23184 37.7574 1 38.3939 1C39.1011 1 39.7022 1.23184 40.1973 1.69552C40.6923 2.15919 40.9398 2.6891 40.9398 3.28526V63H40.0912V32.4968H36.9088V63H36.0602V3.28526C36.0602 2.6891 36.2723 2.15919 36.6966 1.69552Z" fill="white"></path>
        <path d="M57.5695 60.6154V3.68269C57.5695 3.28526 57.3927 2.95406 57.0391 2.6891C56.7562 2.35791 56.4026 2.19231 55.9783 2.19231H54.3871V62.1058H55.9783C56.4026 62.1058 56.7562 61.9733 57.0391 61.7083C57.3927 61.3771 57.5695 61.0128 57.5695 60.6154ZM55.9783 1.39744C56.6855 1.39744 57.2512 1.62928 57.6756 2.09295C58.1706 2.55663 58.4181 3.08654 58.4181 3.68269V60.6154C58.4181 61.2778 58.1706 61.8408 57.6756 62.3045C57.2512 62.7019 56.6855 62.9006 55.9783 62.9006H53.5385V1.39744H55.9783Z" fill="white"></path>
        <path d="M71.969 31.7019H75.1514V3.28526C75.1514 2.88782 74.9746 2.55663 74.621 2.29167C74.3381 2.02671 73.9845 1.89423 73.5602 1.89423C73.1358 1.89423 72.7469 2.02671 72.3933 2.29167C72.1104 2.55663 71.969 2.88782 71.969 3.28526V31.7019ZM71.7568 1.69552C72.2519 1.23184 72.8176 1 73.4541 1C74.1613 1 74.7624 1.23184 75.2574 1.69552C75.7525 2.15919 76 2.6891 76 3.28526V63H75.1514V32.4968H71.969V63H71.1203V3.28526C71.1203 2.6891 71.3325 2.15919 71.7568 1.69552Z" fill="white"></path>
        <path d="M4.31053 2.85147L4.32853 2.87255L4.35072 2.88917C4.64942 3.11299 4.78103 3.37359 4.78103 3.68269V60.6154C4.78103 60.9289 4.64476 61.2308 4.32973 61.5259C4.09775 61.7431 3.80723 61.8558 3.43983 61.8558H2.09864V2.44231H3.43983C3.78882 2.44231 4.0737 2.57419 4.31053 2.85147ZM0.75 62.9006V63.1506H1H3.43983C4.19601 63.1506 4.82777 62.9368 5.30801 62.4869C5.85214 61.9773 6.12967 61.3488 6.12967 60.6154V3.68269C6.12967 3.0105 5.84832 2.41941 5.31498 1.91704C4.83786 1.39966 4.20395 1.14744 3.43983 1.14744H1H0.75V1.39744V62.9006ZM21.9116 2.47413L21.9216 2.48351L21.9326 2.49173C22.2196 2.70682 22.3629 2.99512 22.3629 3.38461V30.3109C22.3629 30.6244 22.2266 30.9263 21.9116 31.2214C21.6796 31.4387 21.3891 31.5513 21.0217 31.5513H19.6805V3.38461C19.6805 2.98138 19.7996 2.69124 20.016 2.48335C20.3251 2.25504 20.6582 2.14423 21.0217 2.14423C21.3891 2.14423 21.6796 2.25685 21.9116 2.47413ZM23.7115 33.9872V33.9761L23.7106 33.965C23.6448 33.2254 23.3495 32.6297 22.825 32.1963C23.4094 31.7116 23.7115 31.0791 23.7115 30.3109V3.38461C23.7115 2.65351 23.435 2.05253 22.8829 1.60593C22.3407 1.10118 21.6801 0.849358 20.9156 0.849358C20.2112 0.849358 19.5855 1.10847 19.0475 1.61241C18.5654 2.06389 18.3319 2.66367 18.3319 3.38461V63V63.25H18.5819H19.4305H19.6805V63V32.8462H21.0217C21.3707 32.8462 21.6556 32.978 21.8924 33.2553L21.9015 33.2659L21.9116 33.2754C22.2266 33.5705 22.3629 33.8724 22.3629 34.1859V63V63.25H22.6129H23.4615H23.7115V63V33.9872ZM39.3899 2.47413L39.3999 2.48351L39.4109 2.49173C39.7096 2.71555 39.8412 2.97615 39.8412 3.28526V31.4519H37.1588V3.28526C37.1588 2.95969 37.2698 2.69804 37.4942 2.48342C37.8033 2.25507 38.1365 2.14423 38.5 2.14423C38.8674 2.14423 39.1579 2.25685 39.3899 2.47413ZM36.5257 1.51305L36.5187 1.51964L36.5122 1.52674C36.0482 2.03376 35.8102 2.623 35.8102 3.28526V63V63.25H36.0602H36.9088H37.1588V63V32.7468H39.8412V63V63.25H40.0912H40.9398H41.1898V63V3.28526C41.1898 2.61014 40.906 2.01683 40.3682 1.51305C39.8247 1.00398 39.1616 0.75 38.3939 0.75C37.6895 0.75 37.0638 1.00911 36.5257 1.51305ZM56.849 2.85147L56.867 2.87255L56.8892 2.88917C57.1879 3.11299 57.3195 3.37359 57.3195 3.68269V60.6154C57.3195 60.9289 57.1832 61.2308 56.8682 61.5259C56.6362 61.7432 56.3457 61.8558 55.9783 61.8558H54.6371V2.44231H55.9783C56.3273 2.44231 56.6122 2.57419 56.849 2.85147ZM53.2885 62.9006V63.1506H53.5385H55.9783C56.7345 63.1506 57.3662 62.9368 57.8465 62.4869C58.3906 61.9773 58.6681 61.3488 58.6681 60.6154V3.68269C58.6681 3.0105 58.3868 2.4194 57.8534 1.91702C57.3763 1.39966 56.7424 1.14744 55.9783 1.14744H53.5385H53.2885V1.39744V62.9006ZM74.4501 2.47413L74.4601 2.48351L74.4711 2.49173C74.7698 2.71555 74.9014 2.97615 74.9014 3.28526V31.4519H72.219V3.28526C72.219 2.95969 72.33 2.69804 72.5544 2.48342C72.8635 2.25506 73.1966 2.14423 73.5602 2.14423C73.9276 2.14423 74.2181 2.25685 74.4501 2.47413ZM71.5859 1.51305L71.5789 1.51964L71.5724 1.52674C71.1084 2.03376 70.8703 2.623 70.8703 3.28526V63V63.25H71.1203H71.969H72.219V63V32.7468H74.9014V63V63.25H75.1514H76H76.25V63V3.28526C76.25 2.61014 75.9662 2.01683 75.4284 1.51305L75.2574 1.69552L75.4283 1.51305C74.8848 1.00398 74.2218 0.75 73.4541 0.75C72.7497 0.75 72.1239 1.00911 71.5859 1.51305Z" stroke="white" stroke-width="0.5"></path>
    </g>
    <defs>
        <filter id="filter0_d" x="0.5" y="0.5" width="83" height="70" filterUnits="userSpaceOnUse" color-interpolation-filters="sRGB">
            <feFlood flood-opacity="0" result="BackgroundImageFix"></feFlood>
            <feColorMatrix in="SourceAlpha" type="matrix" values="0 0 0 0 0 0 0 0 0 0 0 0 0 0 0 0 0 0 127 0"></feColorMatrix>
            <feOffset dx="4" dy="4"></feOffset>
            <feGaussianBlur stdDeviation="1.5"></feGaussianBlur>
            <feColorMatrix type="matrix" values="0 0 0 0 0.12549 0 0 0 0 0.129412 0 0 0 0 0.129412 0 0 0 0.5 0"></feColorMatrix>
            <feBlend mode="normal" in2="BackgroundImageFix" result="effect1_dropShadow"></feBlend>
            <feBlend mode="normal" in="SourceGraphic" in2="effect1_dropShadow" result="shape"></feBlend>
        </filter>
    </defs>
</svg>
