<svg width="20" height="20" viewBox="0 0 20 20" fill="none" xmlns="http://www.w3.org/2000/svg">
<path d="M9.99731 6.66415C8.16111 6.66415 6.66262 8.16263 6.66262 9.99884C6.66262 11.835 8.16111 13.3335 9.99731 13.3335C11.8335 13.3335 13.332 11.835 13.332 9.99884C13.332 8.16263 11.8335 6.66415 9.99731 6.66415ZM19.9989 9.99884C19.9989 8.61793 20.0114 7.24953 19.9338 5.87113C19.8563 4.27007 19.4911 2.84914 18.3203 1.67837C17.147 0.505099 15.7286 0.142361 14.1275 0.0648102C12.7466 -0.0127407 11.3782 -0.000232463 9.99981 -0.000232463C8.61891 -0.000232463 7.25051 -0.0127407 5.8721 0.0648102C4.27105 0.142361 2.85012 0.507601 1.67935 1.67837C0.506076 2.85164 0.143338 4.27007 0.0657868 5.87113C-0.0117642 7.25203 0.000744099 8.62043 0.000744099 9.99884C0.000744099 11.3772 -0.0117642 12.7481 0.0657868 14.1265C0.143338 15.7276 0.508578 17.1485 1.67935 18.3193C2.85262 19.4926 4.27105 19.8553 5.8721 19.9329C7.25301 20.0104 8.62141 19.9979 9.99981 19.9979C11.3807 19.9979 12.7491 20.0104 14.1275 19.9329C15.7286 19.8553 17.1495 19.4901 18.3203 18.3193C19.4936 17.146 19.8563 15.7276 19.9338 14.1265C20.0139 12.7481 19.9989 11.3797 19.9989 9.99884ZM9.99731 15.1297C7.15795 15.1297 4.86644 12.8382 4.86644 9.99884C4.86644 7.15947 7.15795 4.86797 9.99731 4.86797C12.8367 4.86797 15.1282 7.15947 15.1282 9.99884C15.1282 12.8382 12.8367 15.1297 9.99731 15.1297ZM15.3383 5.85612C14.6754 5.85612 14.14 5.32076 14.14 4.65783C14.14 3.99489 14.6754 3.45954 15.3383 3.45954C16.0013 3.45954 16.5366 3.99489 16.5366 4.65783C16.5368 4.81525 16.5059 4.97115 16.4458 5.11663C16.3856 5.2621 16.2974 5.39428 16.1861 5.50559C16.0748 5.6169 15.9426 5.70515 15.7971 5.7653C15.6516 5.82545 15.4957 5.85631 15.3383 5.85612Z" fill="white"/>
</svg>
