<svg width="357" height="297" viewBox="0 0 357 297" fill="none" xmlns="http://www.w3.org/2000/svg">
<g filter="url(#filter0_d)">
<path d="M18.8115 278.846V12.5481C18.8115 10.6891 17.9864 9.13997 16.3363 7.90065C15.0162 6.35151 13.366 5.57693 11.3859 5.57693H3.96031V285.817H11.3859C13.366 285.817 15.0162 285.198 16.3363 283.958C17.9864 282.409 18.8115 280.705 18.8115 278.846ZM11.3859 1.85898C14.6861 1.85898 17.3264 2.94338 19.3065 5.1122C21.6167 7.28099 22.7718 9.75962 22.7718 12.5481V278.846C22.7718 281.944 21.6167 284.578 19.3065 286.747C17.3264 288.606 14.6861 289.535 11.3859 289.535H0V1.85898H11.3859Z" fill="white"/>
<path d="M100.86 137.099V11.1538C100.86 8.98505 100.035 7.28099 98.385 6.04167C97.0649 4.80235 95.4148 4.18269 93.4347 4.18269C91.4545 4.18269 89.6394 4.80235 87.9892 6.04167C86.6691 7.28099 86.0091 8.98505 86.0091 11.1538V144.071H93.4347C95.4148 144.071 97.0649 143.451 98.385 142.212C100.035 140.662 100.86 138.958 100.86 137.099ZM85.019 3.71796C87.3292 1.54914 89.9694 0.464738 92.9396 0.464738C96.2399 0.464738 99.0451 1.54914 101.355 3.71796C103.665 5.57692 104.821 8.05555 104.821 11.1538V137.099C104.821 140.817 103.17 143.761 99.8702 145.929C102.84 147.788 104.491 150.577 104.821 154.295V290H100.86V155.224C100.86 153.365 100.035 151.661 98.385 150.112C97.0649 148.563 95.4148 147.788 93.4347 147.788H86.0091V290H82.0488V11.1538C82.0488 8.05555 83.0388 5.57692 85.019 3.71796Z" fill="white"/>
<path d="M167.574 143.606H182.426V10.6891C182.426 8.83013 181.601 7.28099 179.95 6.04167C178.63 4.80235 176.98 4.18269 175 4.18269C173.02 4.18269 171.205 4.80235 169.555 6.04167C168.234 7.28099 167.574 8.83013 167.574 10.6891V143.606ZM166.584 3.25322C168.895 1.08441 171.535 0 174.505 0C177.805 0 180.61 1.08441 182.921 3.25322C185.231 5.42201 186.386 7.90064 186.386 10.6891V290H182.426V147.324H167.574V290H163.614V10.6891C163.614 7.90064 164.604 5.42201 166.584 3.25322Z" fill="white"/>
<path d="M263.991 278.846V12.5481C263.991 10.6891 263.166 9.13997 261.516 7.90065C260.196 6.35151 258.545 5.57693 256.565 5.57693H249.14V285.817H256.565C258.545 285.817 260.196 285.198 261.516 283.958C263.166 282.409 263.991 280.705 263.991 278.846ZM256.565 1.85898C259.866 1.85898 262.506 2.94338 264.486 5.1122C266.796 7.28099 267.951 9.75962 267.951 12.5481V278.846C267.951 281.944 266.796 284.578 264.486 286.747C262.506 288.606 259.866 289.535 256.565 289.535H245.179V1.85898H256.565Z" fill="white"/>
<path d="M331.189 143.606H346.04V10.6891C346.04 8.83013 345.215 7.28099 343.564 6.04167C342.244 4.80235 340.594 4.18269 338.614 4.18269C336.634 4.18269 334.819 4.80235 333.169 6.04167C331.849 7.28099 331.189 8.83013 331.189 10.6891V143.606ZM330.198 3.25322C332.509 1.08441 335.149 0 338.119 0C341.419 0 344.225 1.08441 346.535 3.25322C348.845 5.42201 350 7.90064 350 10.6891V290H346.04V147.324H331.189V290H327.228V10.6891C327.228 7.90064 328.218 5.42201 330.198 3.25322Z" fill="white"/>
</g>
<defs>
<filter id="filter0_d" x="0" y="0" width="357" height="297" filterUnits="userSpaceOnUse" color-interpolation-filters="sRGB">
<feFlood flood-opacity="0" result="BackgroundImageFix"/>
<feColorMatrix in="SourceAlpha" type="matrix" values="0 0 0 0 0 0 0 0 0 0 0 0 0 0 0 0 0 0 127 0"/>
<feOffset dx="4" dy="4"/>
<feGaussianBlur stdDeviation="1.5"/>
<feColorMatrix type="matrix" values="0 0 0 0 0.12549 0 0 0 0 0.129412 0 0 0 0 0.129412 0 0 0 0.5 0"/>
<feBlend mode="normal" in2="BackgroundImageFix" result="effect1_dropShadow"/>
<feBlend mode="normal" in="SourceGraphic" in2="effect1_dropShadow" result="shape"/>
</filter>
</defs>
</svg>
