<svg width="45" height="38" viewBox="0 0 45 38" fill="none" xmlns="http://www.w3.org/2000/svg">
<path d="M2.90192 2.07774L2.91268 2.09043L2.92595 2.10046C3.09668 2.22942 3.17187 2.37942 3.17187 2.55769V35.6154C3.17187 35.7963 3.09395 35.9704 2.91338 36.1409C2.78093 36.266 2.61525 36.3308 2.40534 36.3308H1.63882V1.84231H2.40534C2.6041 1.84231 2.76646 1.91786 2.90192 2.07774ZM0.85 36.9423V37.0923H1H2.40534C2.8424 37.0923 3.20803 36.9676 3.48595 36.7052C3.80044 36.4083 3.96069 36.0422 3.96069 35.6154V2.55769C3.96069 2.16636 3.79819 1.82207 3.49012 1.5295C3.21413 1.2279 2.84725 1.08077 2.40534 1.08077H1H0.85V1.23077V36.9423ZM13.0405 1.85907L13.0465 1.86472L13.0531 1.86969C13.2169 1.99343 13.299 2.15941 13.299 2.38461V18.0192C13.299 18.2001 13.2211 18.3743 13.0405 18.5448C12.9081 18.6698 12.7424 18.7346 12.5325 18.7346H11.766V2.38461C11.766 2.15132 11.8342 1.98415 11.9576 1.86463C12.1345 1.73294 12.3249 1.66923 12.5325 1.66923C12.7424 1.66923 12.9081 1.734 13.0405 1.85907ZM14.0879 20.1538H14.0884L14.0873 20.1407C14.0495 19.7123 13.8803 19.3664 13.5795 19.114C13.9147 18.832 14.0879 18.4646 14.0879 18.0192V2.38461C14.0879 1.95924 13.9282 1.609 13.609 1.34857C13.2956 1.05455 12.9135 0.907692 12.4714 0.907692C12.0637 0.907692 11.7016 1.05896 11.3908 1.35247C11.1119 1.61577 10.9772 1.96525 10.9772 2.38461V37V37.15H11.1272H11.616H11.766V37V19.4962H12.5325C12.7313 19.4962 12.8936 19.5717 13.0291 19.7316L13.0345 19.7379L13.0405 19.7437C13.2211 19.9142 13.299 20.0884 13.299 20.2692V37V37.15H13.449H13.9379H14.0879V37V20.1538ZM23.108 1.85907L23.114 1.86472L23.1206 1.86969C23.2913 1.99865 23.3665 2.14865 23.3665 2.32692V18.6769H21.8335V2.32692C21.8335 2.1389 21.897 1.9882 22.025 1.86467C22.202 1.73296 22.3924 1.66923 22.6 1.66923C22.8099 1.66923 22.9756 1.734 23.108 1.85907ZM21.4583 1.29478L21.458 1.29446L21.4502 1.30303C21.1821 1.59833 21.0447 1.94148 21.0447 2.32692V37V37.15H21.1947H21.6835H21.8335V37V19.4385H23.3665V37V37.15H23.5165H24.0053H24.1553V37V2.32692C24.1553 1.93383 23.9914 1.58821 23.6806 1.29478C23.3665 0.998157 22.9829 0.85 22.5389 0.85C22.1312 0.85 21.7691 1.00127 21.4583 1.29478ZM33.1641 2.07774L33.1748 2.09043L33.1881 2.10046C33.3588 2.22942 33.434 2.37942 33.434 2.55769V35.6154C33.434 35.7963 33.3561 35.9704 33.1755 36.1409C33.0431 36.266 32.8774 36.3308 32.6675 36.3308H31.901V1.84231H32.6675C32.8662 1.84231 33.0286 1.91786 33.1641 2.07774ZM31.1121 36.9423V37.0923H31.2621H32.6675C33.1045 37.0923 33.4702 36.9676 33.7481 36.7052C34.0626 36.4083 34.2228 36.0422 34.2228 35.6154V2.55769C34.2228 2.16635 34.0603 1.82207 33.7523 1.5295C33.4763 1.2279 33.1094 1.08077 32.6675 1.08077H31.2621H31.1121V1.23077V36.9423ZM43.3027 1.85907L43.3087 1.86472L43.3153 1.86969C43.486 1.99865 43.5612 2.14865 43.5612 2.32692V18.6769H42.0281V2.32692C42.0281 2.13889 42.0916 1.98819 42.2197 1.86466C42.3966 1.73296 42.587 1.66923 42.7947 1.66923C43.0046 1.66923 43.1702 1.734 43.3027 1.85907ZM41.6529 1.29478L41.6526 1.29446L41.6449 1.30303C41.3768 1.59833 41.2393 1.94148 41.2393 2.32692V37V37.15H41.3893H41.8781H42.0281V37V19.4385H43.5612V37V37.15H43.7112H44.2H44.35V37V2.32692C44.35 1.93383 44.186 1.58821 43.8753 1.29478C43.5611 0.998157 43.1776 0.85 42.7336 0.85C42.3258 0.85 41.9638 1.00127 41.6529 1.29478Z" fill="white" stroke="white" stroke-width="0.3"/>
</svg>
