<svg width="77" height="64" viewBox="0 0 77 64" fill="none" xmlns="http://www.w3.org/2000/svg">
<path d="M4.31053 2.85147L4.32853 2.87255L4.35072 2.88917C4.64942 3.11299 4.78103 3.37359 4.78103 3.68269V60.6154C4.78103 60.9289 4.64476 61.2308 4.32973 61.5259C4.09775 61.7431 3.80723 61.8558 3.43983 61.8558H2.09864V2.44231H3.43983C3.78882 2.44231 4.0737 2.57419 4.31053 2.85147ZM0.75 62.9006V63.1506H1H3.43983C4.19601 63.1506 4.82777 62.9368 5.30801 62.4869C5.85214 61.9773 6.12967 61.3488 6.12967 60.6154V3.68269C6.12967 3.0105 5.84832 2.41941 5.31498 1.91704C4.83786 1.39966 4.20395 1.14744 3.43983 1.14744H1H0.75V1.39744V62.9006ZM21.9116 2.47413L21.9216 2.48351L21.9326 2.49173C22.2196 2.70682 22.3629 2.99512 22.3629 3.38461V30.3109C22.3629 30.6244 22.2266 30.9263 21.9116 31.2214C21.6796 31.4387 21.3891 31.5513 21.0217 31.5513H19.6805V3.38461C19.6805 2.98138 19.7996 2.69124 20.016 2.48335C20.3251 2.25504 20.6582 2.14423 21.0217 2.14423C21.3891 2.14423 21.6796 2.25685 21.9116 2.47413ZM23.7115 33.9872V33.9761L23.7106 33.965C23.6448 33.2254 23.3495 32.6297 22.825 32.1963C23.4094 31.7116 23.7115 31.0791 23.7115 30.3109V3.38461C23.7115 2.65351 23.435 2.05253 22.8829 1.60593C22.3407 1.10118 21.6801 0.849358 20.9156 0.849358C20.2112 0.849358 19.5855 1.10847 19.0475 1.61241C18.5654 2.06389 18.3319 2.66367 18.3319 3.38461V63V63.25H18.5819H19.4305H19.6805V63V32.8462H21.0217C21.3707 32.8462 21.6556 32.978 21.8924 33.2553L21.9015 33.2659L21.9116 33.2754C22.2266 33.5705 22.3629 33.8724 22.3629 34.1859V63V63.25H22.6129H23.4615H23.7115V63V33.9872ZM39.3899 2.47413L39.3999 2.48351L39.4109 2.49173C39.7096 2.71555 39.8412 2.97615 39.8412 3.28526V31.4519H37.1588V3.28526C37.1588 2.95969 37.2698 2.69804 37.4942 2.48342C37.8033 2.25507 38.1365 2.14423 38.5 2.14423C38.8674 2.14423 39.1579 2.25685 39.3899 2.47413ZM36.5257 1.51305L36.5187 1.51964L36.5122 1.52674C36.0482 2.03376 35.8102 2.623 35.8102 3.28526V63V63.25H36.0602H36.9088H37.1588V63V32.7468H39.8412V63V63.25H40.0912H40.9398H41.1898V63V3.28526C41.1898 2.61014 40.906 2.01683 40.3682 1.51305C39.8247 1.00398 39.1616 0.75 38.3939 0.75C37.6895 0.75 37.0638 1.00911 36.5257 1.51305ZM56.849 2.85147L56.867 2.87255L56.8892 2.88917C57.1879 3.11299 57.3195 3.37359 57.3195 3.68269V60.6154C57.3195 60.9289 57.1832 61.2308 56.8682 61.5259C56.6362 61.7432 56.3457 61.8558 55.9783 61.8558H54.6371V2.44231H55.9783C56.3273 2.44231 56.6122 2.57419 56.849 2.85147ZM53.2885 62.9006V63.1506H53.5385H55.9783C56.7345 63.1506 57.3662 62.9368 57.8465 62.4869C58.3906 61.9773 58.6681 61.3488 58.6681 60.6154V3.68269C58.6681 3.0105 58.3868 2.4194 57.8534 1.91702C57.3763 1.39966 56.7424 1.14744 55.9783 1.14744H53.5385H53.2885V1.39744V62.9006ZM74.4501 2.47413L74.4601 2.48351L74.4711 2.49173C74.7698 2.71555 74.9014 2.97615 74.9014 3.28526V31.4519H72.219V3.28526C72.219 2.95969 72.33 2.69804 72.5544 2.48342C72.8635 2.25506 73.1966 2.14423 73.5602 2.14423C73.9276 2.14423 74.2181 2.25685 74.4501 2.47413ZM71.5859 1.51305L71.5789 1.51964L71.5724 1.52674C71.1084 2.03376 70.8703 2.623 70.8703 3.28526V63V63.25H71.1203H71.969H72.219V63V32.7468H74.9014V63V63.25H75.1514H76H76.25V63V3.28526C76.25 2.61014 75.9662 2.01683 75.4284 1.51305L75.2574 1.69552L75.4283 1.51305C74.8848 1.00398 74.2218 0.75 73.4541 0.75C72.7497 0.75 72.1239 1.00911 71.5859 1.51305Z" fill="#202121" stroke="#202121" stroke-width="0.5"/>
</svg>
