<svg width="20" height="20" viewBox="0 0 20 20" fill="none" xmlns="http://www.w3.org/2000/svg">
<path d="M3.6518 0C1.62887 0 0 1.62887 0 3.6518V16.3478C0 18.3707 1.62887 19.9996 3.6518 19.9996H10.5329V12.181H8.46546V9.36607H10.5329V6.96112C10.5329 5.07166 11.7545 3.33681 14.5685 3.33681C15.7078 3.33681 16.5503 3.44619 16.5503 3.44619L16.484 6.07489C16.484 6.07489 15.6248 6.06677 14.6872 6.06677C13.6724 6.06677 13.5097 6.53433 13.5097 7.31051V9.36609H16.5647L16.4315 12.181H13.5097V19.9996H16.3478C18.3707 19.9996 19.9996 18.3708 19.9996 16.3478V3.65182C19.9996 1.62889 18.3707 1.99996e-05 16.3478 1.99996e-05H3.65178L3.6518 0Z" fill="white"/>
</svg>
