<svg width="20" height="20" viewBox="0 0 20 20" fill="none" xmlns="http://www.w3.org/2000/svg">
<path d="M19.9996 9.99933C19.9996 15.5234 15.5239 19.9991 9.99981 19.9991C8.96758 19.9991 7.97566 19.8419 7.04019 19.5516C7.44744 18.8863 8.0563 17.7976 8.2821 16.9306C8.40307 16.4629 8.90306 14.5517 8.90306 14.5517C9.22967 15.1726 10.1813 15.7008 11.1933 15.7008C14.2094 15.7008 16.3828 12.9267 16.3828 9.47917C16.3828 6.17682 13.6852 3.70509 10.2176 3.70509C5.90312 3.70509 3.6088 6.6002 3.6088 9.75739C3.6088 11.2251 4.39105 13.0517 5.63699 13.6323C5.8265 13.721 5.92731 13.6807 5.97166 13.4993C6.00392 13.3622 6.17327 12.6807 6.24988 12.3662C6.27408 12.2654 6.26198 12.1767 6.18134 12.0799C5.77409 11.5759 5.44345 10.6566 5.44345 9.79772C5.44345 7.59211 7.11277 5.45909 9.95949 5.45909C12.4151 5.45909 14.1368 7.13244 14.1368 9.52756C14.1368 12.2332 12.7699 14.1081 10.9917 14.1081C10.0119 14.1081 9.27402 13.2977 9.51192 12.3017C9.79417 11.1122 10.3385 9.82997 10.3385 8.97112C10.3385 8.205 9.92723 7.56389 9.07241 7.56389C8.0684 7.56389 7.26196 8.60016 7.26196 9.99126C7.26196 10.8783 7.56034 11.4751 7.56034 11.4751C7.56034 11.4751 6.57246 15.6605 6.39101 16.4428C6.1894 17.3056 6.27004 18.5234 6.35472 19.3137C2.63705 17.8581 0 14.2372 0 9.99933C0 4.47523 4.47572 -0.000488281 9.99981 -0.000488281C15.5239 -0.000488281 19.9996 4.47523 19.9996 9.99933Z" fill="white"/>
</svg>
